<svg xmlns="http://www.w3.org/2000/svg" width="1200" height="630" viewBox="0 0 1200 630">
	<defs>
		<radialGradient id="glow" cx="78%" cy="6%" r="55%">
			<stop offset="0%" stop-color="#31d994" stop-opacity="0.20"/>
			<stop offset="62%" stop-color="#31d994" stop-opacity="0"/>
		</radialGradient>
		<pattern id="dots" width="44" height="44" patternUnits="userSpaceOnUse">
			<circle cx="2" cy="2" r="1.4" fill="rgba(255,255,255,0.05)"/>
		</pattern>
	</defs>
	<rect width="1200" height="630" fill="#070807"/>
	<rect width="1200" height="630" fill="url(#dots)"/>
	<rect width="1200" height="630" fill="url(#glow)"/>
	<g transform="translate(80, 152) scale(0.06800, -0.06800)"><path d="M455 696Q366 561 300 462Q234 364 187 294Q140 224 110 178Q80 133 63 104Q46 75 40 58Q33 41 33 29Q33 4 55 4Q80 4 114 24Q147 45 186 80Q224 116 264 164Q304 211 342 265L353 261Q317 210 277 162Q237 115 200 80Q151 34 116 13Q80 -8 51 -8Q20 -8 6 6Q-7 20 -7 43Q-7 64 0 86Q8 109 26 140Q44 172 74 217Q103 262 146 328Q190 393 249 484Q308 574 385 696ZM384 407Q399 413 417 422Q435 432 450 444Q466 457 478 474Q489 492 492 515Q477 515 464 522Q450 530 450 550Q450 570 461 579Q472 588 490 588Q507 588 518 574Q528 560 528 544Q528 516 513 492Q498 468 476 449Q455 430 430 417Q405 404 385 398ZM841 311Q792 249 740 192Q688 134 636 90Q583 45 531 18Q479 -8 431 -8Q398 -8 378 0Q359 7 348 18Q338 28 334 40Q331 51 331 60Q331 77 341 89Q351 101 369 101Q385 101 394 90Q403 79 403 64Q403 55 398 46Q393 37 384 35Q393 21 409 16Q425 12 442 12Q485 12 532 37Q580 62 628 102Q677 143 725 194Q773 246 817 300Q836 324 864 359Q893 394 929 435Q965 476 1008 518Q1050 561 1098 599Q1146 637 1198 667Q1250 697 1304 712L1307 708Q1273 677 1236 631Q1199 585 1164 532Q1128 478 1096 419Q1064 360 1040 302Q1015 243 1000 189Q986 135 986 90Q986 59 996 38Q1007 16 1039 16Q1058 16 1082 30Q1107 44 1134 67Q1161 90 1188 118Q1214 146 1238 174Q1262 201 1281 226Q1300 250 1311 265L1318 262Q1284 219 1246 171Q1208 123 1169 84Q1130 44 1090 18Q1051 -8 1015 -8Q991 -8 974 0Q958 9 947 24Q936 39 931 58Q926 77 926 98Q926 155 942 208Q958 260 978 311ZM983 323Q1028 416 1090 505Q1151 594 1235 674L1233 676Q1180 650 1130 612Q1079 574 1031 528Q983 482 938 430Q892 378 849 323ZM1420 344Q1365 265 1327 211Q1289 157 1266 121Q1242 85 1232 64Q1221 43 1221 30Q1221 4 1242 4Q1262 4 1288 18Q1315 33 1344 56Q1373 79 1402 108Q1431 137 1456 166Q1482 194 1502 220Q1521 247 1530 264L1538 259Q1526 239 1506 211Q1485 183 1459 154Q1433 124 1404 95Q1375 66 1345 43Q1315 20 1286 6Q1258 -8 1234 -8Q1207 -8 1194 7Q1181 22 1181 40Q1181 61 1190 84Q1200 108 1221 142Q1242 176 1276 224Q1309 273 1356 344ZM1478 530Q1492 530 1501 520Q1510 511 1510 497Q1510 483 1501 474Q1492 464 1478 464Q1464 464 1455 474Q1446 483 1446 497Q1446 511 1455 520Q1464 530 1478 530ZM1865 251Q1842 214 1804 172Q1767 129 1723 92Q1669 47 1615 20Q1561 -8 1509 -8Q1472 -8 1447 12Q1422 31 1422 69Q1422 117 1450 167Q1477 217 1518 258Q1560 300 1610 326Q1659 352 1703 352Q1732 352 1754 342Q1775 331 1775 305Q1775 293 1768 285Q1762 277 1752 272Q1743 267 1732 264Q1720 262 1711 261Q1715 271 1718 282Q1721 292 1721 303Q1721 340 1686 340Q1660 340 1624 314Q1589 289 1558 250Q1526 211 1504 164Q1482 117 1482 73Q1482 46 1494 27Q1507 8 1533 8Q1568 8 1614 31Q1659 54 1702 88Q1747 123 1788 168Q1830 214 1858 257ZM2198 696Q2109 561 2043 462Q1977 364 1930 294Q1883 224 1853 178Q1823 133 1806 104Q1789 75 1782 58Q1776 41 1776 29Q1776 4 1798 4Q1823 4 1856 24Q1890 45 1928 80Q1967 116 2007 164Q2047 211 2085 265L2096 261Q2060 210 2020 162Q1980 115 1943 80Q1894 34 1858 13Q1823 -8 1794 -8Q1763 -8 1750 6Q1736 20 1736 43Q1736 64 1744 86Q1751 109 1769 140Q1787 172 1816 217Q1846 262 1890 328Q1933 393 1992 484Q2051 574 2128 696ZM2197 344Q2158 291 2122 243Q2086 195 2058 155Q2030 115 2014 86Q1997 56 1997 39Q1997 23 2005 16Q2013 8 2026 8Q2045 8 2068 20Q2090 32 2114 51Q2137 70 2160 93Q2182 116 2202 138Q2221 161 2236 180Q2250 199 2257 210L2345 344H2414Q2360 270 2322 218Q2285 167 2262 131Q2238 95 2228 72Q2218 50 2218 33Q2218 21 2225 12Q2232 4 2245 4Q2265 4 2291 18Q2317 33 2345 56Q2373 80 2400 110Q2428 139 2452 168Q2477 197 2497 222Q2517 248 2528 264L2538 261Q2526 244 2506 218Q2486 191 2461 162Q2436 132 2408 102Q2380 71 2350 47Q2321 23 2292 8Q2264 -8 2239 -8Q2211 -8 2194 8Q2178 23 2178 49Q2178 69 2184 88Q2191 106 2194 111L2192 113Q2171 89 2148 67Q2125 45 2102 28Q2079 12 2056 2Q2032 -8 2009 -8Q1977 -8 1963 6Q1949 21 1949 41Q1949 66 1962 95Q1976 124 2000 160Q2024 196 2058 241Q2091 286 2131 344ZM2868 258Q2838 210 2798 162Q2759 115 2712 77Q2665 39 2610 16Q2554 -8 2491 -8Q2467 -8 2446 -2Q2425 4 2410 16Q2394 28 2384 46Q2375 65 2375 90Q2375 116 2392 137Q2409 158 2438 158Q2453 158 2462 150Q2472 143 2472 128Q2472 114 2465 104Q2458 94 2444 94Q2433 94 2426 100Q2420 106 2418 115Q2407 109 2403 98Q2399 86 2399 74Q2399 39 2426 22Q2452 4 2485 4Q2506 4 2522 12Q2537 21 2548 34Q2558 48 2563 66Q2568 84 2568 102Q2568 121 2562 142Q2555 162 2547 182Q2539 202 2532 222Q2525 241 2525 258Q2525 280 2534 298Q2543 315 2558 327Q2574 339 2594 346Q2614 352 2636 352Q2676 352 2701 334Q2726 317 2726 288Q2726 262 2706 250Q2687 238 2663 238Q2669 249 2674 264Q2678 280 2678 293Q2678 313 2666 326Q2653 340 2630 340Q2601 340 2587 322Q2573 305 2573 280Q2573 258 2580 238Q2588 218 2598 198Q2607 178 2614 157Q2622 136 2622 110Q2622 91 2614 74Q2605 56 2591 42Q2577 27 2560 17Q2542 7 2524 4L2526 2Q2580 8 2629 34Q2678 59 2720 96Q2763 132 2799 176Q2835 219 2862 261ZM3042 312Q3042 326 3034 333Q3027 340 3016 340Q2995 340 2970 324Q2946 307 2922 282Q2898 258 2878 230Q2859 202 2849 180Q2871 184 2904 196Q2937 207 2968 224Q2998 241 3020 264Q3042 286 3042 312ZM3204 259Q3189 234 3166 204Q3144 174 3116 144Q3087 115 3054 88Q3022 60 2987 38Q2952 17 2916 4Q2881 -8 2847 -8Q2805 -8 2782 14Q2759 35 2759 75Q2759 119 2786 168Q2812 216 2853 257Q2894 298 2943 325Q2992 352 3037 352Q3062 352 3076 342Q3090 331 3090 311Q3090 287 3064 264Q3038 242 3000 224Q2963 205 2920 190Q2877 176 2844 169Q2833 149 2826 124Q2819 99 2819 74Q2819 62 2822 50Q2824 39 2830 30Q2835 20 2844 14Q2854 8 2868 8Q2901 8 2946 30Q2990 51 3036 87Q3082 123 3124 169Q3166 215 3196 264ZM3922 311Q3873 249 3821 192Q3769 134 3716 90Q3664 45 3612 18Q3560 -8 3512 -8Q3479 -8 3460 0Q3440 7 3430 18Q3419 28 3416 40Q3412 51 3412 60Q3412 77 3422 89Q3432 101 3450 101Q3466 101 3475 90Q3484 79 3484 64Q3484 55 3479 46Q3474 37 3465 35Q3474 21 3490 16Q3506 12 3523 12Q3566 12 3614 37Q3661 62 3710 102Q3758 143 3806 194Q3854 246 3898 300Q3917 324 3946 359Q3974 394 4010 435Q4046 476 4088 518Q4131 561 4179 599Q4227 637 4279 667Q4331 697 4385 712L4388 708Q4354 677 4317 631Q4280 585 4244 532Q4209 478 4177 419Q4145 360 4120 302Q4096 243 4082 189Q4067 135 4067 90Q4067 59 4078 38Q4088 16 4120 16Q4139 16 4164 30Q4188 44 4215 67Q4242 90 4268 118Q4295 146 4319 174Q4343 201 4362 226Q4381 250 4392 265L4399 262Q4365 219 4327 171Q4289 123 4250 84Q4211 44 4172 18Q4132 -8 4096 -8Q4072 -8 4056 0Q4039 9 4028 24Q4017 39 4012 58Q4007 77 4007 98Q4007 155 4023 208Q4039 260 4059 311ZM4064 323Q4109 416 4170 505Q4232 594 4316 674L4314 676Q4261 650 4210 612Q4160 574 4112 528Q4064 482 4018 430Q3973 378 3930 323ZM4728 344Q4668 263 4614 179Q4561 95 4504 12Q4554 23 4602 48Q4651 73 4694 108Q4737 143 4774 185Q4810 227 4835 270L4839 264Q4795 189 4742 139Q4690 89 4641 59Q4592 29 4553 16Q4514 2 4497 0Q4492 -3 4477 -26Q4462 -49 4437 -82Q4412 -115 4378 -152Q4343 -189 4300 -220Q4256 -252 4203 -273Q4150 -294 4089 -294Q4053 -294 4022 -286Q3991 -278 3968 -263Q3946 -248 3934 -227Q3921 -206 3921 -180Q3921 -137 3952 -108Q3983 -80 4030 -80Q4040 -80 4046 -81Q4053 -82 4060 -84V-92H4052Q4013 -92 3994 -116Q3975 -141 3975 -182Q3975 -209 3984 -228Q3994 -247 4010 -259Q4027 -271 4049 -276Q4071 -282 4097 -282Q4141 -282 4184 -262Q4226 -241 4265 -208Q4304 -174 4340 -132Q4375 -90 4406 -48Q4438 -5 4464 34Q4490 74 4510 102L4508 104Q4492 85 4472 66Q4453 46 4431 30Q4409 13 4385 2Q4361 -8 4335 -8Q4316 -8 4302 -1Q4288 6 4279 18Q4270 29 4266 43Q4262 57 4262 70Q4262 101 4276 134Q4289 167 4311 198Q4333 230 4362 258Q4391 285 4422 306Q4454 327 4486 340Q4518 352 4545 352Q4584 352 4602 332Q4619 313 4619 287H4622L4659 344ZM4543 340Q4510 340 4472 312Q4433 285 4400 244Q4366 203 4344 155Q4322 107 4322 65Q4322 43 4334 30Q4345 16 4363 16Q4377 16 4400 28Q4422 39 4446 60Q4471 80 4496 108Q4521 135 4540 166Q4560 197 4572 230Q4585 264 4585 297Q4585 314 4576 327Q4566 340 4543 340ZM5013 312Q5013 326 5006 333Q4998 340 4987 340Q4966 340 4942 324Q4917 307 4893 282Q4869 258 4850 230Q4830 202 4820 180Q4842 184 4875 196Q4908 207 4938 224Q4969 241 4991 264Q5013 286 5013 312ZM5175 259Q5160 234 5138 204Q5115 174 5086 144Q5058 115 5026 88Q4993 60 4958 38Q4923 17 4888 4Q4852 -8 4818 -8Q4776 -8 4753 14Q4730 35 4730 75Q4730 119 4756 168Q4783 216 4824 257Q4865 298 4914 325Q4963 352 5008 352Q5033 352 5047 342Q5061 331 5061 311Q5061 287 5035 264Q5009 242 4972 224Q4934 205 4891 190Q4848 176 4815 169Q4804 149 4797 124Q4790 99 4790 74Q4790 62 4792 50Q4795 39 4800 30Q4806 20 4816 14Q4825 8 4839 8Q4872 8 4916 30Q4961 51 5007 87Q5053 123 5095 169Q5137 215 5167 264ZM5266 344 5134 161 5136 159Q5157 184 5185 218Q5213 251 5245 281Q5277 311 5312 332Q5346 352 5380 352Q5410 352 5426 336Q5443 319 5443 293Q5443 277 5432 255Q5420 233 5403 208Q5386 183 5366 157Q5346 131 5329 108Q5312 84 5300 64Q5289 45 5289 32Q5289 4 5317 4Q5349 4 5385 26Q5421 47 5471 98Q5491 118 5512 142Q5532 166 5551 190Q5570 213 5586 234Q5601 255 5610 269L5617 265Q5597 235 5566 194Q5534 152 5497 112Q5475 88 5452 66Q5429 44 5406 28Q5383 11 5360 2Q5338 -8 5316 -8Q5287 -8 5268 8Q5249 24 5249 52Q5249 82 5273 118Q5297 153 5326 189Q5355 225 5379 258Q5403 291 5403 316Q5403 328 5395 334Q5387 340 5374 340Q5349 340 5318 322Q5287 303 5254 272Q5222 242 5190 204Q5157 167 5129 130Q5101 92 5079 58Q5057 23 5046 0H4984Q5010 44 5040 90Q5069 135 5098 180Q5127 224 5154 266Q5180 307 5201 341ZM5786 460 5707 344H5839L5833 332H5699Q5659 267 5628 220Q5596 172 5574 138Q5553 103 5542 80Q5531 56 5531 38Q5531 19 5544 12Q5557 4 5574 4Q5610 4 5654 32Q5697 59 5740 99Q5783 139 5822 184Q5861 229 5888 265L5894 261Q5860 218 5820 170Q5779 123 5736 84Q5693 44 5650 18Q5606 -8 5567 -8Q5536 -8 5514 11Q5491 30 5491 64Q5491 87 5504 116Q5517 144 5538 177Q5559 210 5586 249Q5612 288 5640 332H5586L5592 344H5648L5726 460ZM6581 323 6583 335H6626Q6655 380 6686 426Q6716 472 6752 512Q6789 553 6834 584Q6878 616 6933 630V632Q6907 632 6880 632Q6853 633 6822 634Q6790 635 6752 636Q6713 636 6664 636Q6565 636 6484 619Q6403 602 6346 571Q6288 540 6256 498Q6224 457 6222 407Q6220 359 6256 330Q6293 302 6356 302Q6397 302 6440 316Q6483 329 6518 354Q6553 378 6576 412Q6598 446 6598 486Q6598 503 6595 516Q6592 530 6589 541L6599 543Q6610 515 6610 485Q6610 449 6589 414Q6568 379 6533 352Q6498 324 6452 307Q6405 290 6355 290Q6288 290 6249 320Q6210 350 6210 404Q6210 459 6248 510Q6285 560 6356 599Q6427 638 6530 661Q6634 684 6766 684Q6854 684 6920 682Q6985 680 7017 680Q7040 680 7058 682Q7077 684 7092 684Q7112 684 7126 682Q7140 679 7140 664Q7140 651 7135 644Q7130 637 7110 634Q7091 631 7053 630Q7015 630 6950 630Q6892 609 6853 574Q6814 540 6786 500Q6757 459 6734 416Q6712 374 6685 337Q6697 339 6716 340Q6734 341 6752 343Q6770 345 6785 348Q6800 351 6804 357Q6813 369 6826 381Q6838 393 6859 393Q6872 393 6884 389Q6843 354 6807 314Q6771 273 6742 227L6736 230Q6746 258 6760 284Q6774 309 6788 335Q6775 333 6760 332Q6744 330 6729 328Q6714 327 6701 326Q6688 325 6680 324Q6644 264 6602 205Q6561 146 6510 98Q6459 51 6396 22Q6333 -8 6254 -8Q6227 -8 6196 -1Q6166 6 6140 21Q6114 36 6097 59Q6080 82 6080 114Q6080 134 6092 151Q6103 168 6125 168Q6141 168 6150 158Q6158 148 6158 133Q6158 119 6151 108Q6144 98 6130 98Q6124 98 6120 99Q6120 96 6122 80Q6125 65 6138 48Q6151 31 6180 18Q6208 4 6259 4Q6324 4 6378 36Q6432 69 6476 117Q6520 165 6556 221Q6591 277 6620 323ZM7028 344Q6973 265 6935 211Q6897 157 6874 121Q6850 85 6840 64Q6829 43 6829 30Q6829 4 6850 4Q6870 4 6896 18Q6923 33 6952 56Q6981 79 7010 108Q7039 137 7064 166Q7090 194 7110 220Q7129 247 7138 264L7146 259Q7134 239 7114 211Q7093 183 7067 154Q7041 124 7012 95Q6983 66 6953 43Q6923 20 6894 6Q6866 -8 6842 -8Q6815 -8 6802 7Q6789 22 6789 40Q6789 61 6798 84Q6808 108 6829 142Q6850 176 6884 224Q6917 273 6964 344ZM7086 530Q7100 530 7109 520Q7118 511 7118 497Q7118 483 7109 474Q7100 464 7086 464Q7072 464 7063 474Q7054 483 7054 497Q7054 511 7063 520Q7072 530 7086 530ZM7318 312Q7318 326 7310 333Q7303 340 7292 340Q7271 340 7246 324Q7222 307 7198 282Q7174 258 7154 230Q7135 202 7125 180Q7147 184 7180 196Q7213 207 7244 224Q7274 241 7296 264Q7318 286 7318 312ZM7480 259Q7465 234 7442 204Q7420 174 7392 144Q7363 115 7330 88Q7298 60 7263 38Q7228 17 7192 4Q7157 -8 7123 -8Q7081 -8 7058 14Q7035 35 7035 75Q7035 119 7062 168Q7088 216 7129 257Q7170 298 7219 325Q7268 352 7313 352Q7338 352 7352 342Q7366 331 7366 311Q7366 287 7340 264Q7314 242 7276 224Q7239 205 7196 190Q7153 176 7120 169Q7109 149 7102 124Q7095 99 7095 74Q7095 62 7098 50Q7100 39 7106 30Q7111 20 7120 14Q7130 8 7144 8Q7177 8 7222 30Q7266 51 7312 87Q7358 123 7400 169Q7442 215 7472 264ZM7806 696Q7717 561 7651 462Q7585 364 7538 294Q7491 224 7461 178Q7431 133 7414 104Q7397 75 7390 58Q7384 41 7384 29Q7384 4 7406 4Q7431 4 7464 24Q7498 45 7536 80Q7575 116 7615 164Q7655 211 7693 265L7704 261Q7668 210 7628 162Q7588 115 7551 80Q7502 34 7466 13Q7431 -8 7402 -8Q7371 -8 7358 6Q7344 20 7344 43Q7344 64 7352 86Q7359 109 7377 140Q7395 172 7424 217Q7454 262 7498 328Q7541 393 7600 484Q7659 574 7736 696ZM8250 692Q8211 630 8165 561Q8119 492 8073 424Q8027 356 7984 292Q7942 229 7909 176Q7876 123 7856 84Q7837 46 7837 28Q7837 17 7842 10Q7848 4 7859 4Q7884 4 7916 24Q7948 44 7993 87Q8032 125 8069 172Q8106 218 8133 263L8141 259Q8132 243 8118 222Q8103 200 8086 177Q8068 154 8048 130Q8028 107 8007 86Q7967 45 7928 18Q7889 -8 7856 -8Q7824 -8 7808 6Q7793 19 7793 40Q7793 59 7801 77Q7809 95 7817 109L7815 110Q7799 92 7780 72Q7760 51 7738 33Q7716 15 7692 4Q7667 -8 7641 -8Q7605 -8 7586 14Q7566 36 7566 66Q7566 108 7595 158Q7624 208 7668 251Q7711 294 7761 323Q7811 352 7854 352Q7886 352 7905 332Q7924 312 7923 281H7926L8184 692ZM7895 280Q7895 304 7887 322Q7879 340 7850 340Q7830 340 7806 326Q7781 312 7756 289Q7731 266 7708 236Q7684 207 7666 176Q7648 146 7637 117Q7626 88 7626 65Q7626 44 7634 30Q7642 16 7663 16Q7681 16 7704 30Q7728 44 7754 66Q7780 89 7805 118Q7830 147 7850 176Q7870 205 7882 232Q7895 260 7895 280ZM8463 692Q8381 562 8299 436Q8217 311 8129 189L8131 187Q8157 216 8182 246Q8208 275 8236 298Q8263 322 8292 337Q8322 352 8354 352Q8387 352 8402 336Q8416 320 8416 297Q8416 273 8402 254Q8387 236 8366 222Q8344 209 8318 201Q8293 193 8272 189V187Q8284 181 8292 164Q8301 148 8301 130Q8301 118 8296 105Q8292 92 8286 78Q8280 64 8276 50Q8271 37 8271 23Q8271 4 8287 4Q8314 4 8355 28Q8396 52 8442 98Q8474 130 8507 169Q8540 208 8578 263L8587 257Q8568 230 8532 183Q8495 136 8446 87Q8399 40 8357 16Q8315 -8 8280 -8Q8250 -8 8234 5Q8217 18 8217 45Q8217 59 8224 76Q8231 94 8239 110Q8247 127 8254 142Q8261 156 8261 165Q8261 184 8244 184Q8234 184 8220 180Q8207 176 8190 176Q8175 176 8175 185Q8175 194 8190 194Q8196 194 8204 193Q8211 192 8222 192Q8252 192 8278 199Q8303 206 8322 220Q8341 233 8352 252Q8362 271 8362 295Q8362 316 8352 326Q8342 336 8328 336Q8309 336 8284 320Q8259 305 8230 278Q8202 252 8172 218Q8143 183 8116 146Q8088 108 8064 70Q8040 33 8023 0H7957Q8068 173 8178 344Q8289 514 8401 689ZM8693 344Q8638 265 8600 211Q8562 157 8538 121Q8515 85 8504 64Q8494 43 8494 30Q8494 4 8515 4Q8535 4 8562 18Q8588 33 8617 56Q8646 79 8675 108Q8704 137 8730 166Q8755 194 8774 220Q8794 247 8803 264L8811 259Q8799 239 8778 211Q8758 183 8732 154Q8706 124 8677 95Q8648 66 8618 43Q8588 20 8560 6Q8531 -8 8507 -8Q8480 -8 8467 7Q8454 22 8454 40Q8454 61 8464 84Q8473 108 8494 142Q8515 176 8548 224Q8582 273 8629 344ZM8751 530Q8765 530 8774 520Q8783 511 8783 497Q8783 483 8774 474Q8765 464 8751 464Q8737 464 8728 474Q8719 483 8719 497Q8719 511 8728 520Q8737 530 8751 530ZM8979 460 8900 344H9032L9026 332H8892Q8852 267 8820 220Q8789 172 8768 138Q8746 103 8735 80Q8724 56 8724 38Q8724 19 8737 12Q8750 4 8767 4Q8803 4 8846 32Q8890 59 8933 99Q8976 139 9015 184Q9054 229 9081 265L9087 261Q9053 218 9012 170Q8972 123 8929 84Q8886 44 8842 18Q8799 -8 8760 -8Q8729 -8 8706 11Q8684 30 8684 64Q8684 87 8697 116Q8710 144 8731 177Q8752 210 8778 249Q8805 288 8833 332H8779L8785 344H8841L8919 460Z" fill="#f7f7f2"/></g>
	<text x="80" y="270" font-family="'SFMono-Regular', Menlo, Consolas, monospace" font-size="21" letter-spacing="1.5" fill="#31d994">16 PLUGINS · 65 SKILLS · CLAUDE CODE + CODEX</text>
	<text x="78" y="352" font-family="Inter, -apple-system, 'Segoe UI', Roboto, sans-serif" font-size="58" font-weight="800" letter-spacing="-1.2" fill="#ffffff">Guardrails for coding agents</text>
	<text x="78" y="420" font-family="Inter, -apple-system, 'Segoe UI', Roboto, sans-serif" font-size="58" font-weight="800" letter-spacing="-1.2" xml:space="preserve"><tspan fill="#ffffff">that touch </tspan><tspan fill="#31d994">real repositories.</tspan></text>
	<g>
		<rect x="80" y="496" width="267" height="44" rx="22" fill="#11150f" stroke="rgba(255,255,255,0.15)"/>
		<circle cx="102" cy="518" r="4.5" fill="#31d994"/>
		<text x="118" y="523" font-family="'SFMono-Regular', Menlo, Consolas, monospace" font-size="15" fill="#d7dcd8">Repository discipline</text>
		<text x="327" y="523" text-anchor="end" font-family="'SFMono-Regular', Menlo, Consolas, monospace" font-size="15" font-weight="700" fill="#31d994">4</text>
	</g>
	<g>
		<rect x="359" y="496" width="213" height="44" rx="22" fill="#11150f" stroke="rgba(255,255,255,0.15)"/>
		<circle cx="381" cy="518" r="4.5" fill="#31d994"/>
		<text x="397" y="523" font-family="'SFMono-Regular', Menlo, Consolas, monospace" font-size="15" fill="#d7dcd8">Autonomous work</text>
		<text x="552" y="523" text-anchor="end" font-family="'SFMono-Regular', Menlo, Consolas, monospace" font-size="15" font-weight="700" fill="#31d994">2</text>
	</g>
	<g>
		<rect x="584" y="496" width="249" height="44" rx="22" fill="#11150f" stroke="rgba(255,255,255,0.15)"/>
		<circle cx="606" cy="518" r="4.5" fill="#31d994"/>
		<text x="622" y="523" font-family="'SFMono-Regular', Menlo, Consolas, monospace" font-size="15" fill="#d7dcd8">Review and language</text>
		<text x="813" y="523" text-anchor="end" font-family="'SFMono-Regular', Menlo, Consolas, monospace" font-size="15" font-weight="700" fill="#31d994">5</text>
	</g>
	<g>
		<rect x="845" y="496" width="276" height="44" rx="22" fill="#11150f" stroke="rgba(255,255,255,0.15)"/>
		<circle cx="867" cy="518" r="4.5" fill="#31d994"/>
		<text x="883" y="523" font-family="'SFMono-Regular', Menlo, Consolas, monospace" font-size="15" fill="#d7dcd8">Feedback and utilities</text>
		<text x="1101" y="523" text-anchor="end" font-family="'SFMono-Regular', Menlo, Consolas, monospace" font-size="15" font-weight="700" fill="#31d994">5</text>
	</g>
</svg>
